:SAMPLES-PER-SECOND 30
:FULLY-SPECIFIED
:DEGREES
155
root  -25.1144 34.4673 8.27477 -170.883 51.1317 -177.509
RightUpLeg  -6.10983 -18.5695 3.36918
RightLeg  9.24207 -9.77129 -0.942975
RightFoot  0.217878 0.00307861 0.188529
RightToes  -20.3055 -0.0853816 -0.18187
Spine  -1.19436 0.662624 1.65902
Spine1  -2.37102 1.52291 3.95996
HEad  -65.8011 -2.53228 9.60349
LeftShoulder1  -1.94126e-019 -3.10601e-018 -2.51263e-017
LeftArm  -21.9001 28.9587 -84.6913
LeftForeArm  32.2895 -11.1796 -1.92659
LeftHand  -0.398232 -1.7354 6.6659
RightShoulder  -4.96962e-017 0 -2.36833e-017
RightArm  -18.6318 -14.7753 74.2456
RightForeArm  51.7111 23.679 2.43516
RightHand  -0.393229 -0.465289 -9.27042
LeftUpLeg  -15.4906 -2.00737 10.1677
LeftLeg  21.3751 6.94795 2.20685
LeftFoot  1.46869 -0.00232777 0.34316
LeftToes  -28.7714 1.49739e-006 1.00523e-007
156
root  -25.2348 34.4809 8.10599 -170.859 51.5435 -177.896
RightUpLeg  -6.89858 -17.7707 2.88164
RightLeg  10.1349 -10.1534 -1.13857
RightFoot  0.128867 0.00239472 0.204674
RightToes  -20.7218 -0.0870833 -0.18364
Spine  -1.32956 0.599427 1.68551
Spine1  -2.6502 1.39434 4.01731
HEad  -65.8048 -2.08342 9.41494
LeftShoulder1  -1.94126e-019 -3.10601e-018 -2.51263e-017
LeftArm  -20.0673 28.2855 -84.5904
LeftForeArm  31.7316 -12.446 -2.1124
LeftHand  -0.394213 -1.59657 6.72057
RightShoulder  -4.96962e-017 0 -2.36833e-017
RightArm  -18.9924 -15.0929 74.521
RightForeArm  52.2505 21.7247 2.03373
RightHand  -0.396645 -0.430382 -9.28876
LeftUpLeg  -14.5007 -3.39025 9.18788
LeftLeg  19.0652 8.96626 2.45264
LeftFoot  2.37408 -0.00791719 0.543638
LeftToes  -24.4962 1.49739e-006 1.00523e-007
157
root  -25.3721 34.474 7.91479 -170.952 51.7369 -178.304
RightUpLeg  -7.83606 -17.2242 2.31108
RightLeg  11.5798 -10.4717 -1.44063
RightFoot  -0.16242 -0.0011212 0.261964
RightToes  -21.1637 -0.0888404 -0.186112
Spine  -1.43184 0.425441 1.7244
Spine1  -2.86789 1.0806 4.06748
HEad  -65.5613 -1.8178 9.41381
LeftShoulder1  -1.94126e-019 -3.10601e-018 -2.51263e-017
LeftArm  -18.3804 27.4547 -84.4775
LeftForeArm  31.6861 -13.7715 -2.29627
LeftHand  -0.388957 -1.6579 6.58011
RightShoulder  -4.96962e-017 0 -2.36833e-017
RightArm  -19.9404 -15.1966 74.7233
RightForeArm  52.968 18.6683 1.43075
RightHand  -0.409659 -0.398999 -9.53683
LeftUpLeg  -13.6712 -6.36841 8.54269
LeftLeg  17.2055 12.5353 2.98582
LeftFoot  3.17046 -0.0198296 0.878078
LeftToes  -25.1349 1.49739e-006 1.00523e-007
158
root  -25.5228 34.4676 7.68853 -171.602 51.637 -179.135
RightUpLeg  -8.63433 -17.2746 1.35328
RightLeg  13.2932 -10.5233 -1.76804
RightFoot  -0.539408 -0.00566084 0.335783
RightToes  -21.7216 -0.0912625 -0.190518
Spine  -1.42757 0.157826 1.64678
Spine1  -2.88793 0.574468 3.86474
HEad  -65.1171 -1.9833 9.57949
LeftShoulder1  -1.94126e-019 -3.10601e-018 -2.51263e-017
LeftArm  -16.3155 26.1551 -84.1144
LeftForeArm  32.0628 -15.0097 -2.48535
LeftHand  -0.383596 -1.64163 6.50538
RightShoulder  -4.96962e-017 0 -2.36833e-017
RightArm  -22.2984 -15.7378 75.1075
RightForeArm  54.1459 16.908 1.09612
RightHand  -0.405075 -0.654048 -9.91184
LeftUpLeg  -13.36 -7.80561 7.61474
LeftLeg  16.665 13.8074 3.14721
LeftFoot  3.29669 -0.022319 0.979072
LeftToes  -23.9308 1.49739e-006 1.00523e-007
159
root  -25.6646 34.465 7.4308 -172.426 51.6027 179.933
RightUpLeg  -9.05661 -17.539 0.24416
RightLeg  14.5159 -10.2965 -1.95614
RightFoot  -0.750645 -0.0071465 0.370745
RightToes  -22.3841 -0.0951443 -0.19571
Spine  -1.38936 -0.0177763 1.4319
Spine1  -2.83654 0.217982 3.40294
HEad  -65.1879 -2.69971 10.064
LeftShoulder1  -1.94126e-019 -3.10601e-018 -2.51263e-017
LeftArm  -13.899 24.7067 -83.3842
LeftForeArm  32.936 -16.7442 -2.78465
LeftHand  -0.388558 -1.86683 6.29001
RightShoulder  -4.96962e-017 0 -2.36833e-017
RightArm  -26.5367 -16.7816 75.6161
RightForeArm  55.9269 15.1298 1.11364
RightHand  -0.399824 -1.03105 -10.5889
LeftUpLeg  -12.9864 -6.43659 6.5764
LeftLeg  16.1261 12.3027 2.68985
LeftFoot  3.67906 -0.0186161 0.961924
LeftToes  -25.1486 1.49739e-006 1.00523e-007
160
root  -25.8103 34.4568 7.15757 -173.213 51.4979 179.19
RightUpLeg  -9.03764 -18.086 -0.825199
RightLeg  15.1158 -9.87583 -1.98408
RightFoot  -0.750479 -0.00538889 0.359243
RightToes  -23.3045 -0.100636 -0.202846
Spine  -1.30923 -0.190344 1.23195
Spine1  -2.69301 -0.155107 2.98391
HEad  -65.4916 -3.64073 10.223
LeftShoulder1  -1.94126e-019 -3.10601e-018 -2.51263e-017
LeftArm  -11.284 23.1152 -82.6495
LeftForeArm  33.3247 -18.4747 -3.0794
LeftHand  -0.39213 -1.98616 6.26552
RightShoulder  -4.96962e-017 0 -2.36833e-017
RightArm  -30.0231 -18.3259 75.9059
RightForeArm  56.5927 13.8796 1.26716
RightHand  -0.364326 -1.51246 -10.7824
LeftUpLeg  -12.6725 -4.24229 5.64919
LeftLeg  15.8895 9.86739 2.12103
LeftFoot  3.72814 -0.00642307 0.794053
LeftToes  -26.526 1.49739e-006 1.00523e-007
161
root  -25.9637 34.4432 6.86076 -173.779 51.593 178.646
RightUpLeg  -8.92429 -18.473 -1.81338
RightLeg  15.3733 -9.36808 -1.92688
RightFoot  -0.605116 -0.00204426 0.320036
RightToes  -24.3033 -0.106724 -0.210489
Spine  -1.24583 -0.307873 1.09568
Spine1  -2.57224 -0.435021 2.71176
HEad  -65.745 -4.7171 9.99693
LeftShoulder1  -1.94126e-019 -3.10601e-018 -2.51263e-017
LeftArm  -9.50361 21.5266 -82.1871
LeftForeArm  33.8965 -19.9036 -3.29629
LeftHand  -0.396079 -2.07785 6.24711
RightShoulder  -4.96962e-017 0 -2.36833e-017
RightArm  -30.5988 -20.2191 75.9059
RightForeArm  55.5596 13.4122 1.343
RightHand  -0.194826 -3.33645 -10.3531
LeftUpLeg  -12.5025 -2.4343 4.73349
LeftLeg  16.0013 8.23163 1.78868
LeftFoot  3.29605 0.00587798 0.608878
LeftToes  -26.2974 1.49739e-006 1.00523e-007
162
root  -26.1174 34.4208 6.54809 -174.378 51.9103 178.125
RightUpLeg  -8.89253 -18.417 -2.81225
RightLeg  15.8631 -9.0825 -1.94957
RightFoot  -0.510895 1.12236e-005 0.291561
RightToes  -25.3694 -0.113369 -0.21853
Spine  -1.19654 -0.395165 0.989215
Spine1  -2.47542 -0.673649 2.4999
HEad  -65.6337 -5.78689 9.48588
LeftShoulder1  -1.94126e-019 -3.10601e-018 -2.51263e-017
LeftArm  -8.79803 20.2636 -81.9877
LeftForeArm  34.0457 -21.4126 -3.50138
LeftHand  -0.397565 -2.09981 6.24765
RightShoulder  -4.96962e-017 0 -2.36833e-017
RightArm  -32.7256 -21.8494 75.4308
RightForeArm  58.5348 12.0064 1.47429
RightHand  -0.326097 -1.92922 -10.7413
LeftUpLeg  -12.3144 -2.54571 3.80082
LeftLeg  16.4075 8.71233 1.95685
LeftFoot  2.6959 0.0105357 0.529999
LeftToes  -24.8612 1.49739e-006 1.00523e-007
